<svg width="19" height="18" viewBox="0 0 19 18" fill="none" xmlns="http://www.w3.org/2000/svg">
<mask id="mask0_561_2057" style="mask-type:alpha" maskUnits="userSpaceOnUse" x="0" y="0" width="19" height="18">
<rect x="0.5" width="18" height="18" fill="#D9D9D9"/>
</mask>
<g mask="url(#mask0_561_2057)">
<path d="M4.8875 12.825C5.525 12.3375 6.2375 11.9531 7.025 11.6719C7.8125 11.3906 8.6375 11.25 9.5 11.25C10.3625 11.25 11.1875 11.3906 11.975 11.6719C12.7625 11.9531 13.475 12.3375 14.1125 12.825C14.55 12.3125 14.8906 11.7313 15.1344 11.0813C15.3781 10.4313 15.5 9.7375 15.5 9C15.5 7.3375 14.9156 5.92188 13.7469 4.75313C12.5781 3.58438 11.1625 3 9.5 3C7.8375 3 6.42188 3.58438 5.25313 4.75313C4.08438 5.92188 3.5 7.3375 3.5 9C3.5 9.7375 3.62187 10.4313 3.86562 11.0813C4.10938 11.7313 4.45 12.3125 4.8875 12.825ZM9.5 9.75C8.7625 9.75 8.14062 9.49688 7.63438 8.99063C7.12813 8.48438 6.875 7.8625 6.875 7.125C6.875 6.3875 7.12813 5.76562 7.63438 5.25938C8.14062 4.75313 8.7625 4.5 9.5 4.5C10.2375 4.5 10.8594 4.75313 11.3656 5.25938C11.8719 5.76562 12.125 6.3875 12.125 7.125C12.125 7.8625 11.8719 8.48438 11.3656 8.99063C10.8594 9.49688 10.2375 9.75 9.5 9.75ZM9.5 16.5C8.4625 16.5 7.4875 16.3031 6.575 15.9094C5.6625 15.5156 4.86875 14.9813 4.19375 14.3063C3.51875 13.6313 2.98438 12.8375 2.59063 11.925C2.19687 11.0125 2 10.0375 2 9C2 7.9625 2.19687 6.9875 2.59063 6.075C2.98438 5.1625 3.51875 4.36875 4.19375 3.69375C4.86875 3.01875 5.6625 2.48438 6.575 2.09063C7.4875 1.69687 8.4625 1.5 9.5 1.5C10.5375 1.5 11.5125 1.69687 12.425 2.09063C13.3375 2.48438 14.1313 3.01875 14.8063 3.69375C15.4813 4.36875 16.0156 5.1625 16.4094 6.075C16.8031 6.9875 17 7.9625 17 9C17 10.0375 16.8031 11.0125 16.4094 11.925C16.0156 12.8375 15.4813 13.6313 14.8063 14.3063C14.1313 14.9813 13.3375 15.5156 12.425 15.9094C11.5125 16.3031 10.5375 16.5 9.5 16.5ZM9.5 15C10.1625 15 10.7875 14.9031 11.375 14.7094C11.9625 14.5156 12.5 14.2375 12.9875 13.875C12.5 13.5125 11.9625 13.2344 11.375 13.0406C10.7875 12.8469 10.1625 12.75 9.5 12.75C8.8375 12.75 8.2125 12.8469 7.625 13.0406C7.0375 13.2344 6.5 13.5125 6.0125 13.875C6.5 14.2375 7.0375 14.5156 7.625 14.7094C8.2125 14.9031 8.8375 15 9.5 15ZM9.5 8.25C9.825 8.25 10.0938 8.14375 10.3062 7.93125C10.5188 7.71875 10.625 7.45 10.625 7.125C10.625 6.8 10.5188 6.53125 10.3062 6.31875C10.0938 6.10625 9.825 6 9.5 6C9.175 6 8.90625 6.10625 8.69375 6.31875C8.48125 6.53125 8.375 6.8 8.375 7.125C8.375 7.45 8.48125 7.71875 8.69375 7.93125C8.90625 8.14375 9.175 8.25 9.5 8.25Z" fill="#0E2FBF"/>
</g>
</svg>
