<svg width="24" height="25" viewBox="0 0 24 25" fill="none" xmlns="http://www.w3.org/2000/svg">
<mask id="mask0_700_2823" style="mask-type:alpha" maskUnits="userSpaceOnUse" x="0" y="0" width="24" height="25">
<rect y="0.842285" width="24" height="24" fill="#D9D9D9"/>
</mask>
<g mask="url(#mask0_700_2823)">
<path d="M12.5 5.34229C12.5 5.89229 12.3042 6.36312 11.9125 6.75479C11.5208 7.14645 11.05 7.34229 10.5 7.34229C10.2833 7.34229 10.0833 7.31312 9.9 7.25479C9.71667 7.19645 9.53333 7.10062 9.35 6.96729C8.95 7.10062 8.62917 7.34229 8.3875 7.69229C8.14583 8.04228 8.025 8.42562 8.025 8.84229H21L20 15.8423H15.1V13.8423H18.275C18.3583 13.3423 18.4292 12.8423 18.4875 12.3423C18.5458 11.8423 18.6167 11.3423 18.7 10.8423H5.3C5.38333 11.3423 5.45417 11.8423 5.5125 12.3423C5.57083 12.8423 5.64167 13.3423 5.725 13.8423H8.9V15.8423H4L3 8.84229H6C6 8.02562 6.225 7.28395 6.675 6.61729C7.125 5.95062 7.73333 5.45895 8.5 5.14229C8.55 4.62562 8.76667 4.19645 9.15 3.85479C9.53333 3.51312 9.98333 3.34229 10.5 3.34229C11.05 3.34229 11.5208 3.53812 11.9125 3.92979C12.3042 4.32145 12.5 4.79229 12.5 5.34229ZM9.775 19.8423H14.225L14.8 13.8423H9.2L9.775 19.8423ZM8 21.8423L7.25 14.0423C7.18333 13.459 7.35 12.9465 7.75 12.5048C8.15 12.0631 8.64167 11.8423 9.225 11.8423H14.775C15.3583 11.8423 15.85 12.0631 16.25 12.5048C16.65 12.9465 16.8167 13.459 16.75 14.0423L16 21.8423H8Z" fill="white"/>
</g>
</svg>
